{
	"asset":{
		"generator":"Khronos glTF Blender I/O v5.0.21",
		"version":"2.0"
	},
	"extensionsUsed":[
		"KHR_materials_transmission",
		"KHR_materials_ior"
	],
	"scene":1,
	"scenes":[
		{
			"name":"Luxury Perfume Product Render Setup"
		},
		{
			"name":"Pastel Balance",
			"nodes":[
				0,
				1,
				2,
				3,
				4,
				5,
				6,
				7,
				8
			]
		},
		{
			"name":"Scene"
		}
	],
	"nodes":[
		{
			"mesh":0,
			"name":"Plane",
			"translation":[
				1.3877521753311157,
				0,
				0
			]
		},
		{
			"mesh":1,
			"name":"Sphere",
			"rotation":[
				0,
				0.47049635648727417,
				0,
				0.8824020624160767
			],
			"scale":[
				2.336862087249756,
				2.42406964302063,
				2.116438150405884
			],
			"translation":[
				-2.121424436569214,
				0.6479208469390869,
				-0.5376188158988953
			]
		},
		{
			"mesh":2,
			"name":"Sphere.001",
			"rotation":[
				-0.031504757702350616,
				0.3727147877216339,
				-0.046334028244018555,
				0.9262528419494629
			],
			"scale":[
				0.04129025712609291,
				0.10218258202075958,
				0.10218258202075958
			],
			"translation":[
				-3.7233493328094482,
				2.664609909057617,
				1.0091960430145264
			]
		},
		{
			"mesh":3,
			"name":"Sphere.002",
			"rotation":[
				-0.03866690397262573,
				0.5193621516227722,
				-0.04054948687553406,
				0.8527154326438904
			],
			"scale":[
				0.04129025712609291,
				0.10218258947134018,
				0.10218257457017899
			],
			"translation":[
				-2.8412365913391113,
				2.664609909057617,
				1.5653541088104248
			]
		},
		{
			"mesh":4,
			"name":"Object_9",
			"rotation":[
				5.0215319788549095e-05,
				0.9566435217857361,
				-0.00016493147995788604,
				0.2912612557411194
			],
			"scale":[
				16.573461532592773,
				14.059797286987305,
				16.573461532592773
			],
			"translation":[
				-2.0624513626098633,
				3.794222354888916,
				-0.633977472782135
			]
		},
		{
			"mesh":5,
			"name":"Object_9.001",
			"rotation":[
				5.0215319788549095e-05,
				0.9566435217857361,
				-0.00016493147995788604,
				0.2912612557411194
			],
			"scale":[
				16.573461532592773,
				14.059797286987305,
				16.573461532592773
			],
			"translation":[
				-1.5950403213500977,
				3.794222354888916,
				-0.577970564365387
			]
		},
		{
			"mesh":6,
			"name":"Object_9.002",
			"rotation":[
				5.0215319788549095e-05,
				0.9566435217857361,
				-0.00016493147995788604,
				0.2912612557411194
			],
			"scale":[
				16.573461532592773,
				14.059797286987305,
				16.573461532592773
			],
			"translation":[
				-1.6784913539886475,
				3.794222354888916,
				-0.633977472782135
			]
		},
		{
			"mesh":7,
			"name":"Sphere.003",
			"rotation":[
				0,
				0.6638215184211731,
				0,
				0.7478910088539124
			],
			"scale":[
				2.336862087249756,
				2.42406964302063,
				2.116438150405884
			],
			"translation":[
				2.7932651042938232,
				0.7033610343933105,
				3.3094489574432373
			]
		},
		{
			"mesh":8,
			"name":"Lens",
			"rotation":[
				0,
				-0.007983827963471413,
				0,
				0.9999682307243347
			],
			"scale":[
				26.781360626220703,
				26.781360626220703,
				26.781360626220703
			],
			"translation":[
				2.7466015815734863,
				2.2031633853912354,
				5.743343353271484
			]
		}
	],
	"materials":[
		{
			"doubleSided":true,
			"name":"floor",
			"pbrMetallicRoughness":{
				"baseColorFactor":[
					0.6938849687576294,
					0.5398602485656738,
					0.20596474409103394,
					1
				],
				"metallicFactor":0
			}
		},
		{
			"doubleSided":true,
			"name":"White Cotton.001",
			"normalTexture":{
				"index":0,
				"texCoord":1
			},
			"pbrMetallicRoughness":{
				"baseColorTexture":{
					"index":1,
					"texCoord":1
				},
				"metallicFactor":0,
				"metallicRoughnessTexture":{
					"index":2,
					"texCoord":1
				}
			}
		},
		{
			"doubleSided":true,
			"name":"black.001",
			"pbrMetallicRoughness":{
				"baseColorFactor":[
					0,
					0,
					0,
					1
				],
				"metallicFactor":0,
				"roughnessFactor":0.6000000238418579
			}
		},
		{
			"doubleSided":true,
			"name":"white.001",
			"pbrMetallicRoughness":{
				"metallicFactor":0,
				"roughnessFactor":0.6000000238418579
			}
		},
		{
			"doubleSided":true,
			"extensions":{
				"KHR_materials_transmission":{
					"transmissionFactor":1
				},
				"KHR_materials_ior":{
					"ior":1
				}
			},
			"name":"Glass",
			"pbrMetallicRoughness":{
				"baseColorFactor":[
					0.054275158792734146,
					0.054275158792734146,
					0.054275158792734146,
					1
				],
				"metallicFactor":0.20000000298023224,
				"roughnessFactor":0
			}
		},
		{
			"doubleSided":true,
			"name":"Black",
			"pbrMetallicRoughness":{
				"baseColorFactor":[
					0.039780959486961365,
					0.039780959486961365,
					0.039780959486961365,
					1
				],
				"metallicFactor":0.7357512712478638,
				"roughnessFactor":0.23989637196063995
			}
		},
		{
			"doubleSided":true,
			"extensions":{
				"KHR_materials_transmission":{
					"transmissionFactor":0.8999999761581421
				},
				"KHR_materials_ior":{
					"ior":1.4500000476837158
				}
			},
			"name":"trans_rub.001",
			"pbrMetallicRoughness":{
				"metallicFactor":0,
				"roughnessFactor":0
			}
		}
	],
	"meshes":[
		{
			"name":"Plane.004",
			"primitives":[
				{
					"attributes":{
						"POSITION":0,
						"NORMAL":1,
						"TEXCOORD_0":2
					},
					"indices":3,
					"material":0
				}
			]
		},
		{
			"name":"Sphere.006",
			"primitives":[
				{
					"attributes":{
						"POSITION":4,
						"NORMAL":5,
						"TEXCOORD_0":6,
						"TEXCOORD_1":7
					},
					"indices":8,
					"material":1
				}
			]
		},
		{
			"name":"Sphere.007",
			"primitives":[
				{
					"attributes":{
						"POSITION":9,
						"NORMAL":10,
						"TEXCOORD_0":11
					},
					"indices":12,
					"material":2
				}
			]
		},
		{
			"name":"Sphere.008",
			"primitives":[
				{
					"attributes":{
						"POSITION":13,
						"NORMAL":14,
						"TEXCOORD_0":15
					},
					"indices":12,
					"material":2
				}
			]
		},
		{
			"name":"Collection_smd_white_0.003",
			"primitives":[
				{
					"attributes":{
						"POSITION":16,
						"NORMAL":17,
						"TEXCOORD_0":18
					},
					"indices":19,
					"material":3
				},
				{
					"attributes":{
						"POSITION":20,
						"NORMAL":21,
						"TEXCOORD_0":22
					},
					"indices":23,
					"material":2
				}
			]
		},
		{
			"name":"Collection_smd_white_0.004",
			"primitives":[
				{
					"attributes":{
						"POSITION":24,
						"NORMAL":25,
						"TEXCOORD_0":26
					},
					"indices":27,
					"material":2
				}
			]
		},
		{
			"name":"Collection_smd_white_0.005",
			"primitives":[
				{
					"attributes":{
						"POSITION":28,
						"NORMAL":29,
						"TEXCOORD_0":30
					},
					"indices":31,
					"material":2
				}
			]
		},
		{
			"name":"Sphere.009",
			"primitives":[
				{
					"attributes":{
						"POSITION":32,
						"NORMAL":33,
						"TEXCOORD_0":34,
						"TEXCOORD_1":35
					},
					"indices":8,
					"material":1
				}
			]
		},
		{
			"name":"Plane.016",
			"primitives":[
				{
					"attributes":{
						"POSITION":36,
						"NORMAL":37,
						"TEXCOORD_0":38,
						"TEXCOORD_1":39
					},
					"indices":40,
					"material":4
				},
				{
					"attributes":{
						"POSITION":41,
						"NORMAL":42,
						"TEXCOORD_0":43,
						"TEXCOORD_1":44
					},
					"indices":45,
					"material":5
				},
				{
					"attributes":{
						"POSITION":46,
						"NORMAL":47,
						"TEXCOORD_0":48,
						"TEXCOORD_1":49
					},
					"indices":50,
					"material":6
				}
			]
		}
	],
	"textures":[
		{
			"sampler":0,
			"source":0
		},
		{
			"sampler":0,
			"source":1
		},
		{
			"sampler":0,
			"source":2
		}
	],
	"images":[
		{
			"mimeType":"image/jpeg",
			"name":"Fabric081C_4K-JPG_NormalGL",
			"uri":"Fabric081C_4K-JPG_NormalGL.jpg"
		},
		{
			"mimeType":"image/jpeg",
			"name":"Fabric081C_4K-JPG_Color",
			"uri":"Fabric081C_4K-JPG_Color.jpg"
		},
		{
			"mimeType":"image/png",
			"name":"Fabric081C_4K-JPG_Roughness",
			"uri":"Fabric081C_4K-JPG_Roughness.png"
		}
	],
	"accessors":[
		{
			"bufferView":0,
			"componentType":5126,
			"count":28,
			"max":[
				15,
				21.177570343017578,
				15
			],
			"min":[
				-15,
				0,
				-15
			],
			"type":"VEC3"
		},
		{
			"bufferView":1,
			"componentType":5126,
			"count":28,
			"type":"VEC3"
		},
		{
			"bufferView":2,
			"componentType":5126,
			"count":28,
			"type":"VEC2"
		},
		{
			"bufferView":3,
			"componentType":5123,
			"count":78,
			"type":"SCALAR"
		},
		{
			"bufferView":4,
			"componentType":5126,
			"count":713,
			"max":[
				1.0030430555343628,
				1.5977592468261719,
				1.0030426979064941
			],
			"min":[
				-1.003042459487915,
				-0.2683145999908447,
				-1.003043293952942
			],
			"type":"VEC3"
		},
		{
			"bufferView":5,
			"componentType":5126,
			"count":713,
			"type":"VEC3"
		},
		{
			"bufferView":6,
			"componentType":5126,
			"count":713,
			"type":"VEC2"
		},
		{
			"bufferView":7,
			"componentType":5126,
			"count":713,
			"type":"VEC2"
		},
		{
			"bufferView":8,
			"componentType":5123,
			"count":3066,
			"type":"SCALAR"
		},
		{
			"bufferView":9,
			"componentType":5126,
			"count":559,
			"max":[
				0.9999997019767761,
				1,
				0.9999993443489075
			],
			"min":[
				-0.9999990463256836,
				-1,
				-1
			],
			"type":"VEC3"
		},
		{
			"bufferView":10,
			"componentType":5126,
			"count":559,
			"type":"VEC3"
		},
		{
			"bufferView":11,
			"componentType":5126,
			"count":559,
			"type":"VEC2"
		},
		{
			"bufferView":12,
			"componentType":5123,
			"count":2880,
			"type":"SCALAR"
		},
		{
			"bufferView":13,
			"componentType":5126,
			"count":559,
			"max":[
				0.9999997019767761,
				1,
				0.9999993443489075
			],
			"min":[
				-0.9999990463256836,
				-1,
				-1
			],
			"type":"VEC3"
		},
		{
			"bufferView":14,
			"componentType":5126,
			"count":559,
			"type":"VEC3"
		},
		{
			"bufferView":15,
			"componentType":5126,
			"count":559,
			"type":"VEC2"
		},
		{
			"bufferView":16,
			"componentType":5126,
			"count":1172,
			"max":[
				0.18376363813877106,
				0.035656608641147614,
				0.06188292056322098
			],
			"min":[
				-0.18413835763931274,
				-0.14620834589004517,
				-0.06194616109132767
			],
			"type":"VEC3"
		},
		{
			"bufferView":17,
			"componentType":5126,
			"count":1172,
			"type":"VEC3"
		},
		{
			"bufferView":18,
			"componentType":5126,
			"count":1172,
			"type":"VEC2"
		},
		{
			"bufferView":19,
			"componentType":5123,
			"count":1872,
			"type":"SCALAR"
		},
		{
			"bufferView":20,
			"componentType":5126,
			"count":6925,
			"max":[
				0.1856086105108261,
				0.1641233265399933,
				0.08780054748058319
			],
			"min":[
				-0.18627482652664185,
				-0.19563251733779907,
				-0.08786506950855255
			],
			"type":"VEC3"
		},
		{
			"bufferView":21,
			"componentType":5126,
			"count":6925,
			"type":"VEC3"
		},
		{
			"bufferView":22,
			"componentType":5126,
			"count":6925,
			"type":"VEC2"
		},
		{
			"bufferView":23,
			"componentType":5123,
			"count":15516,
			"type":"SCALAR"
		},
		{
			"bufferView":24,
			"componentType":5126,
			"count":703,
			"max":[
				0.15170174837112427,
				-0.007120579481124878,
				0.08496862649917603
			],
			"min":[
				0.11559595912694931,
				-0.1914154291152954,
				-0.08503209054470062
			],
			"type":"VEC3"
		},
		{
			"bufferView":25,
			"componentType":5126,
			"count":703,
			"type":"VEC3"
		},
		{
			"bufferView":26,
			"componentType":5126,
			"count":703,
			"type":"VEC2"
		},
		{
			"bufferView":27,
			"componentType":5123,
			"count":3888,
			"type":"SCALAR"
		},
		{
			"bufferView":28,
			"componentType":5126,
			"count":703,
			"max":[
				-0.1054692193865776,
				-0.007730960845947266,
				0.08496876060962677
			],
			"min":[
				-0.14838719367980957,
				-0.1916358470916748,
				-0.08503195643424988
			],
			"type":"VEC3"
		},
		{
			"bufferView":29,
			"componentType":5126,
			"count":703,
			"type":"VEC3"
		},
		{
			"bufferView":30,
			"componentType":5126,
			"count":703,
			"type":"VEC2"
		},
		{
			"bufferView":31,
			"componentType":5123,
			"count":3888,
			"type":"SCALAR"
		},
		{
			"bufferView":32,
			"componentType":5126,
			"count":713,
			"max":[
				1.0030430555343628,
				1.5977592468261719,
				1.0030426979064941
			],
			"min":[
				-1.003042459487915,
				-0.2683145999908447,
				-1.003043293952942
			],
			"type":"VEC3"
		},
		{
			"bufferView":33,
			"componentType":5126,
			"count":713,
			"type":"VEC3"
		},
		{
			"bufferView":34,
			"componentType":5126,
			"count":713,
			"type":"VEC2"
		},
		{
			"bufferView":35,
			"componentType":5126,
			"count":713,
			"type":"VEC2"
		},
		{
			"bufferView":36,
			"componentType":5126,
			"count":276,
			"max":[
				0.07164628803730011,
				0.046030327677726746,
				-0.0009659213246777654
			],
			"min":[
				-0.07164628803730011,
				-0.009102213196456432,
				-0.011767012998461723
			],
			"type":"VEC3"
		},
		{
			"bufferView":37,
			"componentType":5126,
			"count":276,
			"type":"VEC3"
		},
		{
			"bufferView":38,
			"componentType":5126,
			"count":276,
			"type":"VEC2"
		},
		{
			"bufferView":39,
			"componentType":5126,
			"count":276,
			"type":"VEC2"
		},
		{
			"bufferView":40,
			"componentType":5123,
			"count":1632,
			"type":"SCALAR"
		},
		{
			"bufferView":41,
			"componentType":5126,
			"count":8608,
			"max":[
				0.07655061036348343,
				0.04744405299425125,
				-0.0010214300127699971
			],
			"min":[
				-0.07655066251754761,
				-0.009563282132148743,
				-0.16036470234394073
			],
			"type":"VEC3"
		},
		{
			"bufferView":42,
			"componentType":5126,
			"count":8608,
			"type":"VEC3"
		},
		{
			"bufferView":43,
			"componentType":5126,
			"count":8608,
			"type":"VEC2"
		},
		{
			"bufferView":44,
			"componentType":5126,
			"count":8608,
			"type":"VEC2"
		},
		{
			"bufferView":45,
			"componentType":5123,
			"count":45276,
			"type":"SCALAR"
		},
		{
			"bufferView":46,
			"componentType":5126,
			"count":92,
			"max":[
				0.01820380799472332,
				0.023319963365793228,
				-0.004339707084000111
			],
			"min":[
				-0.01820387691259384,
				0.008588951081037521,
				-0.011209835298359394
			],
			"type":"VEC3"
		},
		{
			"bufferView":47,
			"componentType":5126,
			"count":92,
			"type":"VEC3"
		},
		{
			"bufferView":48,
			"componentType":5126,
			"count":92,
			"type":"VEC2"
		},
		{
			"bufferView":49,
			"componentType":5126,
			"count":92,
			"type":"VEC2"
		},
		{
			"bufferView":50,
			"componentType":5123,
			"count":516,
			"type":"SCALAR"
		}
	],
	"bufferViews":[
		{
			"buffer":0,
			"byteLength":336,
			"byteOffset":0,
			"target":34962
		},
		{
			"buffer":0,
			"byteLength":336,
			"byteOffset":336,
			"target":34962
		},
		{
			"buffer":0,
			"byteLength":224,
			"byteOffset":672,
			"target":34962
		},
		{
			"buffer":0,
			"byteLength":156,
			"byteOffset":896,
			"target":34963
		},
		{
			"buffer":0,
			"byteLength":8556,
			"byteOffset":1052,
			"target":34962
		},
		{
			"buffer":0,
			"byteLength":8556,
			"byteOffset":9608,
			"target":34962
		},
		{
			"buffer":0,
			"byteLength":5704,
			"byteOffset":18164,
			"target":34962
		},
		{
			"buffer":0,
			"byteLength":5704,
			"byteOffset":23868,
			"target":34962
		},
		{
			"buffer":0,
			"byteLength":6132,
			"byteOffset":29572,
			"target":34963
		},
		{
			"buffer":0,
			"byteLength":6708,
			"byteOffset":35704,
			"target":34962
		},
		{
			"buffer":0,
			"byteLength":6708,
			"byteOffset":42412,
			"target":34962
		},
		{
			"buffer":0,
			"byteLength":4472,
			"byteOffset":49120,
			"target":34962
		},
		{
			"buffer":0,
			"byteLength":5760,
			"byteOffset":53592,
			"target":34963
		},
		{
			"buffer":0,
			"byteLength":6708,
			"byteOffset":59352,
			"target":34962
		},
		{
			"buffer":0,
			"byteLength":6708,
			"byteOffset":66060,
			"target":34962
		},
		{
			"buffer":0,
			"byteLength":4472,
			"byteOffset":72768,
			"target":34962
		},
		{
			"buffer":0,
			"byteLength":14064,
			"byteOffset":77240,
			"target":34962
		},
		{
			"buffer":0,
			"byteLength":14064,
			"byteOffset":91304,
			"target":34962
		},
		{
			"buffer":0,
			"byteLength":9376,
			"byteOffset":105368,
			"target":34962
		},
		{
			"buffer":0,
			"byteLength":3744,
			"byteOffset":114744,
			"target":34963
		},
		{
			"buffer":0,
			"byteLength":83100,
			"byteOffset":118488,
			"target":34962
		},
		{
			"buffer":0,
			"byteLength":83100,
			"byteOffset":201588,
			"target":34962
		},
		{
			"buffer":0,
			"byteLength":55400,
			"byteOffset":284688,
			"target":34962
		},
		{
			"buffer":0,
			"byteLength":31032,
			"byteOffset":340088,
			"target":34963
		},
		{
			"buffer":0,
			"byteLength":8436,
			"byteOffset":371120,
			"target":34962
		},
		{
			"buffer":0,
			"byteLength":8436,
			"byteOffset":379556,
			"target":34962
		},
		{
			"buffer":0,
			"byteLength":5624,
			"byteOffset":387992,
			"target":34962
		},
		{
			"buffer":0,
			"byteLength":7776,
			"byteOffset":393616,
			"target":34963
		},
		{
			"buffer":0,
			"byteLength":8436,
			"byteOffset":401392,
			"target":34962
		},
		{
			"buffer":0,
			"byteLength":8436,
			"byteOffset":409828,
			"target":34962
		},
		{
			"buffer":0,
			"byteLength":5624,
			"byteOffset":418264,
			"target":34962
		},
		{
			"buffer":0,
			"byteLength":7776,
			"byteOffset":423888,
			"target":34963
		},
		{
			"buffer":0,
			"byteLength":8556,
			"byteOffset":431664,
			"target":34962
		},
		{
			"buffer":0,
			"byteLength":8556,
			"byteOffset":440220,
			"target":34962
		},
		{
			"buffer":0,
			"byteLength":5704,
			"byteOffset":448776,
			"target":34962
		},
		{
			"buffer":0,
			"byteLength":5704,
			"byteOffset":454480,
			"target":34962
		},
		{
			"buffer":0,
			"byteLength":3312,
			"byteOffset":460184,
			"target":34962
		},
		{
			"buffer":0,
			"byteLength":3312,
			"byteOffset":463496,
			"target":34962
		},
		{
			"buffer":0,
			"byteLength":2208,
			"byteOffset":466808,
			"target":34962
		},
		{
			"buffer":0,
			"byteLength":2208,
			"byteOffset":469016,
			"target":34962
		},
		{
			"buffer":0,
			"byteLength":3264,
			"byteOffset":471224,
			"target":34963
		},
		{
			"buffer":0,
			"byteLength":103296,
			"byteOffset":474488,
			"target":34962
		},
		{
			"buffer":0,
			"byteLength":103296,
			"byteOffset":577784,
			"target":34962
		},
		{
			"buffer":0,
			"byteLength":68864,
			"byteOffset":681080,
			"target":34962
		},
		{
			"buffer":0,
			"byteLength":68864,
			"byteOffset":749944,
			"target":34962
		},
		{
			"buffer":0,
			"byteLength":90552,
			"byteOffset":818808,
			"target":34963
		},
		{
			"buffer":0,
			"byteLength":1104,
			"byteOffset":909360,
			"target":34962
		},
		{
			"buffer":0,
			"byteLength":1104,
			"byteOffset":910464,
			"target":34962
		},
		{
			"buffer":0,
			"byteLength":736,
			"byteOffset":911568,
			"target":34962
		},
		{
			"buffer":0,
			"byteLength":736,
			"byteOffset":912304,
			"target":34962
		},
		{
			"buffer":0,
			"byteLength":1032,
			"byteOffset":913040,
			"target":34963
		}
	],
	"samplers":[
		{
			"magFilter":9729,
			"minFilter":9987
		}
	],
	"buffers":[
		{
			"byteLength":914072,
			"uri":"model.bin"
		}
	]
}
